HIERARCHY
ROOT Hips
{
	OFFSET 0.000000 0.000000 0.000000
	CHANNELS 6 Xposition Yposition Zposition Xrotation Yrotation Zrotation
	JOINT LeftUpLeg_virtual
	{
		OFFSET 0.000000 0.000000 0.000000
		CHANNELS 3 Xrotation Yrotation Zrotation
		JOINT LeftUpLeg
		{
			OFFSET 10.205400 -3.823500 0.155100
			CHANNELS 3 Xrotation Yrotation Zrotation
			JOINT LeftLeg
			{
				OFFSET 0.708757 -12.982077 0.567790
				CHANNELS 3 Xrotation Yrotation Zrotation
				JOINT LeftFoot
				{
					OFFSET -0.708756 -10.717838 -2.184338
					CHANNELS 3 Xrotation Yrotation Zrotation
					JOINT LeftToeBase
					{
						OFFSET 0.108149 -7.191104 7.560241
						CHANNELS 3 Xrotation Yrotation Zrotation
						JOINT LeftToe_End
						{
							OFFSET 0.070230 0.081724 4.490308
							CHANNELS 3 Xrotation Yrotation Zrotation
							End Site
							{
								OFFSET 0 0 0
							}
						}
					}
				}
			}
		}
	}
	JOINT RightUpLeg_virtual
	{
		OFFSET 0.000000 0.000000 0.000000
		CHANNELS 3 Xrotation Yrotation Zrotation
		JOINT RightUpLeg
		{
			OFFSET -10.205400 -3.823500 0.005500
			CHANNELS 3 Xrotation Yrotation Zrotation
			JOINT RightLeg
			{
				OFFSET -0.708756 -12.982134 0.610632
				CHANNELS 3 Xrotation Yrotation Zrotation
				JOINT RightFoot
				{
					OFFSET 0.708754 -10.717769 -1.945823
					CHANNELS 3 Xrotation Yrotation Zrotation
					JOINT RightToeBase
					{
						OFFSET -0.108140 -7.191069 7.372968
						CHANNELS 3 Xrotation Yrotation Zrotation
						JOINT RightToe_End
						{
							OFFSET -0.070227 0.081735 4.479403
							CHANNELS 3 Xrotation Yrotation Zrotation
							End Site
							{
								OFFSET 0 0 0
							}
						}
					}
				}
			}
		}
	}
	JOINT Spine_virtual
	{
		OFFSET 0.000000 0.000000 0.000000
		CHANNELS 3 Xrotation Yrotation Zrotation
		JOINT Spine
		{
			OFFSET 0.000000 6.876099 0.125700
			CHANNELS 3 Xrotation Yrotation Zrotation
			JOINT Spine1
			{
				OFFSET 0.000000 5.730043 0.104720
				CHANNELS 3 Xrotation Yrotation Zrotation
				JOINT Spine1_split
				{
					OFFSET 0.000000 5.730043 0.104720
					CHANNELS 3 Xrotation Yrotation Zrotation
					JOINT Spine2
					{
						OFFSET 0.000000 5.730043 0.104720
						CHANNELS 3 Xrotation Yrotation Zrotation
						JOINT Neck_virtual
						{
							OFFSET 0.000000 0.000000 0.000000
							CHANNELS 3 Xrotation Yrotation Zrotation
							JOINT Neck
							{
								OFFSET 0.000000 10.314075 0.188496
								CHANNELS 3 Xrotation Yrotation Zrotation
								JOINT Head
								{
									OFFSET 0.000000 7.643700 -2.377400
									CHANNELS 3 Xrotation Yrotation Zrotation
									JOINT HeadTop_End
									{
										OFFSET 0.000000 43.788605 -13.619600
										CHANNELS 3 Xrotation Yrotation Zrotation
										End Site
										{
											OFFSET 0 0 0
										}
									}
								}
							}
						}
						JOINT LeftShoulder_virtual
						{
							OFFSET 0.000000 0.000000 0.000000
							CHANNELS 3 Xrotation Yrotation Zrotation
							JOINT LeftShoulder
							{
								OFFSET 2.196100 4.412489 0.087492
								CHANNELS 3 Xrotation Yrotation Zrotation
								JOINT LeftShoulder_split
								{
									OFFSET 2.196100 4.412489 0.087492
									CHANNELS 3 Xrotation Yrotation Zrotation
									JOINT LeftArm
									{
										OFFSET 8.771219 -2.981674 -0.026999
										CHANNELS 3 Xrotation Yrotation Zrotation
										JOINT LeftForeArm
										{
											OFFSET 8.512804 0.000000 -0.000000
											CHANNELS 3 Xrotation Yrotation Zrotation
											JOINT LeftHand
											{
												OFFSET 18.484802 0.000000 -0.000000
												CHANNELS 3 Xrotation Yrotation Zrotation
												End Site
												{
													OFFSET 0 0 0
												}
											}
										}
									}
								}
							}
						}
						JOINT RightShoulder_virtual
						{
							OFFSET 0.000000 0.000000 0.000000
							CHANNELS 3 Xrotation Yrotation Zrotation
							JOINT RightShoulder
							{
								OFFSET -2.196100 4.412496 0.070690
								CHANNELS 3 Xrotation Yrotation Zrotation
								JOINT RightShoulder_split
								{
									OFFSET -2.196100 4.412496 0.070690
									CHANNELS 3 Xrotation Yrotation Zrotation
									JOINT RightArm
									{
										OFFSET -8.771282 -2.981682 -0.094208
										CHANNELS 3 Xrotation Yrotation Zrotation
										JOINT RightForeArm
										{
											OFFSET -8.494598 0.000000 0.000000
											CHANNELS 3 Xrotation Yrotation Zrotation
											JOINT RightHand
											{
												OFFSET -18.483803 0.000000 0.000001
												CHANNELS 3 Xrotation Yrotation Zrotation
												End Site
												{
													OFFSET 0 0 0
												}
											}
										}
									}
								}
							}
						}
					}
				}
			}
		}
	}
}
MOTION
Frames: 7
Frame Time: 0.03333333
0.058484 28.359245 -0.162842 0.000000 0.000000 0.000000 -15.864427 4.952123 0.828669 -16.289847 -1.747036 16.715288 58.086463 -0.086451 -1.001950 -30.816932 2.341249 -17.120101 -1.239836 -0.051683 0.629737 0.000000 0.000000 0.000000 -16.197802 2.994160 0.598655 -8.288418 -4.982574 -22.356990 55.794979 4.707952 3.016068 -33.181196 -7.304724 13.377559 0.454781 0.374112 -0.329024 0.000000 0.000000 0.000000 -14.925083 1.845779 0.081190 18.820962 -0.117716 2.249308 5.750116 -0.045996 -0.190917 2.307144 5.584543 -0.396686 0.000000 0.000000 0.000000 6.140050 -0.141753 0.347136 -10.932700 -1.374962 2.682896 -17.349239 1.799515 -0.682145 0.000000 0.000000 0.000000 7.922914 -0.190312 0.721477 3.616463 -8.004723 -4.765747 -4.852976 -1.317804 -4.229055 -10.777240 -17.430142 -58.459842 70.587778 -61.667012 71.000206 0.000000 0.000000 0.000000 7.455368 -0.107273 -0.139459 10.030309 -5.488264 16.234327 3.330674 2.789253 -0.825222 -27.609153 12.054532 60.327796 90.521604 61.359155 -85.098030 0.000000 0.000000 0.000000 
0.020362 28.353966 -0.089781 0.000000 0.000000 0.000000 -15.962671 5.044276 0.789151 -16.179214 -2.024877 16.839054 58.064271 -0.237342 -1.003805 -30.944780 2.317337 -17.110128 -1.129909 -0.043358 0.670035 0.000000 0.000000 0.000000 -16.309406 3.399240 0.618636 -8.029454 -4.986564 -22.310722 56.077021 4.740368 3.022849 -33.442191 -7.268450 13.071825 0.797957 0.424909 -0.351877 0.000000 0.000000 0.000000 -15.089143 2.214093 0.052625 18.749423 -0.193920 2.202574 5.938170 -0.017130 -0.123536 2.174270 5.643512 -0.135494 0.000000 0.000000 0.000000 6.234650 -0.166732 0.393115 -11.196077 -1.141325 2.239735 -17.503237 2.064084 -0.739530 0.000000 0.000000 0.000000 7.969203 -0.133151 0.798280 3.705818 -7.954630 -4.390372 -4.550216 -1.450771 -4.407000 -12.759135 -17.760426 -60.058482 68.163867 -61.249011 68.707380 0.000000 0.000000 0.000000 7.570508 -0.115140 -0.099451 9.858658 -5.786299 16.268513 3.418976 2.074665 0.783514 -27.127686 10.760436 60.687952 88.271090 62.488185 -83.226408 0.000000 0.000000 0.000000 
-0.016421 28.366549 -0.007397 0.000000 0.000000 0.000000 -16.256687 5.193673 0.805612 -15.948212 -2.338517 16.768143 58.109064 -0.382481 -0.964450 -31.224555 2.368570 -17.116543 -0.981663 -0.000246 0.622113 0.000000 0.000000 0.000000 -16.551232 3.772533 0.650190 -7.472078 -5.214962 -22.392413 56.236383 4.977059 2.988548 -33.513826 -7.295013 13.142087 0.696451 0.416007 -0.377031 0.000000 0.000000 0.000000 -15.472139 2.800373 0.044325 18.859667 -0.381136 2.008678 6.299769 0.084375 0.006588 1.944528 4.837962 0.025910 0.000000 0.000000 0.000000 6.525437 -0.078899 0.403404 -11.055180 -0.883797 1.351347 -18.015053 2.212055 -0.745612 0.000000 0.000000 0.000000 8.105838 -0.010519 0.885910 3.528226 -8.657697 -4.089797 -4.326518 -2.209090 -3.623573 -12.995833 -16.968253 -60.120520 61.839570 -61.969746 62.693179 0.000000 0.000000 0.000000 7.897130 -0.006407 0.028357 9.431398 -5.907574 16.345121 1.986755 1.572374 1.210723 -25.057572 11.507945 59.635577 84.526883 65.872680 -80.508751 0.000000 0.000000 0.000000 
-0.039522 28.405041 0.066025 0.000000 0.000000 0.000000 -16.697905 5.349736 0.881342 -15.525768 -2.573113 16.437234 58.135278 -0.467280 -0.859300 -31.573912 2.475533 -17.062607 -0.858030 0.061229 0.506553 0.000000 0.000000 0.000000 -16.875374 4.036722 0.703726 -6.596283 -5.645319 -22.558230 56.158406 5.299487 2.956367 -33.560094 -7.394331 13.371162 0.384462 0.354486 -0.369407 0.000000 0.000000 0.000000 -15.987227 3.350396 0.088378 19.085746 -0.666561 1.725062 6.750711 0.215393 0.129683 1.482753 3.455642 0.637499 0.000000 0.000000 0.000000 6.964460 0.036975 0.378327 -10.335863 -0.608696 0.191647 -18.614219 2.326981 -0.813291 0.000000 0.000000 0.000000 8.294502 0.103716 0.947528 3.153786 -9.915188 -3.673762 -4.147059 -3.487038 -2.430695 -11.301256 -15.531408 -58.075732 53.674123 -63.988805 54.849896 0.000000 0.000000 0.000000 8.325487 0.121834 0.178863 8.866055 -5.824270 16.167560 -0.359031 1.228601 0.887945 -20.803622 13.767459 56.458637 81.552049 71.231537 -78.753406 0.000000 0.000000 0.000000 
-0.041843 28.489979 0.145798 0.000000 0.000000 0.000000 -17.229104 5.441825 1.035676 -14.826742 -2.663678 15.866931 57.937455 -0.470564 -0.710057 -31.877955 2.590796 -16.875434 -0.818339 0.116051 0.372577 0.000000 0.000000 0.000000 -17.236322 4.244580 0.817153 -5.475699 -6.233708 -22.696783 55.649929 5.475938 2.982683 -33.631862 -7.576226 13.424483 0.282862 0.274406 -0.317260 0.000000 0.000000 0.000000 -16.612439 3.709363 0.191414 19.305472 -1.055811 1.411631 7.174386 0.285556 0.204306 0.671576 2.154601 1.179720 0.000000 0.000000 0.000000 7.532829 0.061905 0.315933 -8.713864 -0.289524 -0.985358 -19.043840 2.404644 -0.963893 0.000000 0.000000 0.000000 8.508684 0.113701 0.976175 2.693416 -11.397744 -2.947886 -4.151318 -4.197876 -1.786065 -8.109131 -14.102485 -53.703124 44.521109 -67.378081 46.082436 0.000000 0.000000 0.000000 8.788251 0.130123 0.306126 8.233979 -5.594158 15.506628 -2.117233 1.207981 0.184859 -14.175247 16.207066 50.880555 79.307874 77.846767 -77.411424 0.000000 0.000000 0.000000 
-0.025632 28.646658 0.195415 0.000000 0.000000 0.000000 -17.721995 5.458416 1.251768 -13.837710 -2.660035 15.147558 57.386457 -0.432064 -0.517986 -31.973997 2.641225 -16.602503 -0.884157 0.145884 0.262338 0.000000 0.000000 0.000000 -17.543003 4.424360 1.000391 -4.255466 -6.858793 -22.729512 54.620237 5.445868 3.093454 -33.673785 -7.810316 13.267141 0.469164 0.217117 -0.233671 0.000000 0.000000 0.000000 -17.240186 3.826089 0.369600 19.395567 -1.515230 1.127229 7.491065 0.198796 0.222420 -0.221487 1.347147 1.112846 0.000000 0.000000 0.000000 8.176609 -0.053126 0.246620 -5.908489 0.013212 -1.922450 -19.108303 2.397969 -1.241389 0.000000 0.000000 0.000000 8.705468 -0.040968 0.980650 2.305225 -12.828402 -1.808557 -3.881115 -4.360367 -1.806786 -4.072846 -12.821564 -46.944013 33.866643 -71.881853 35.846079 0.000000 0.000000 0.000000 9.172226 -0.043201 0.397204 7.565029 -5.114545 14.148799 -3.201106 1.403766 -0.254768 -6.159281 16.955630 43.198488 69.132374 84.547988 -67.565638 0.000000 0.000000 0.000000 
0.006064 28.860212 0.202648 0.000000 0.000000 0.000000 -18.154474 5.415851 1.492195 -12.706531 -2.621134 14.464242 56.466748 -0.417310 -0.305650 -31.719849 2.600211 -16.367380 -1.008385 0.142215 0.202483 0.000000 0.000000 0.000000 -17.752492 4.652505 1.247725 -3.034637 -7.412715 -22.691263 53.096630 5.294804 3.229382 -33.543520 -8.025488 13.139538 0.648770 0.227841 -0.189793 0.000000 0.000000 0.000000 -17.842722 3.858176 0.614806 19.314648 -2.026431 0.868096 7.763216 -0.057669 0.179759 -0.729706 1.443025 0.879585 0.000000 0.000000 0.000000 8.796434 -0.344709 0.224868 -1.806714 0.248893 -2.474200 -18.764739 2.335385 -1.561683 0.000000 0.000000 0.000000 8.915805 -0.342923 0.937815 2.165116 -14.032682 -0.180935 -3.367027 -4.736718 -2.208662 0.794953 -11.221451 -38.082560 19.972223 -76.286574 22.197664 0.000000 0.000000 0.000000 9.357546 -0.392303 0.486291 6.864541 -4.247157 12.246599 -3.760099 1.741227 -0.258748 0.646146 15.204139 34.868522 -26.832473 86.999712 28.474437 0.000000 0.000000 0.000000 
